<svg fill="none" viewBox="0 0 43 43" xmlns="http://www.w3.org/2000/svg">
    <path
        d="m11.341 27.7126c-1.90445.7288-3.341 2.7437-3.341 4.6862v6.645c0 2.2883 1.96918 3.5433 4.2127 2.6848l19.4463-7.4412c1.9044-.7287 3.341-2.7437 3.341-4.6862v-6.645c0-2.2883-1.9692-3.5433-4.2127-2.6848z"
        fill="#ff3e80" />
    <path
        d="m31.659 18.0632c1.9044.7619 3.341 2.8684 3.341 4.8992v6.947c0 2.3924-1.9692 3.7044-4.2127 2.8069l-19.4463-7.7795c-1.90445-.7618-3.341-2.8684-3.341-4.8992v-6.947c0-2.3924 1.96918-3.7044 4.2127-2.8069z"
        fill="#8759f2" />
    <path
        d="m11.341 8.71259c-1.90445.72876-3.341 2.74371-3.341 4.68621v6.645c0 2.2883 1.96918 3.5433 4.2127 2.6848l19.4463-7.4412c1.9044-.7288 3.341-2.7437 3.341-4.6862v-6.64501c0-2.28832-1.9692-3.543305-4.2127-2.68481z"
        fill="#ffc300" />
</svg>